<svg width="1440" height="760" viewBox="0 0 1440 760" fill="none" xmlns="http://www.w3.org/2000/svg">
  <rect width="1440" height="760" rx="28" fill="#f6f8f3"/>
  <rect x="72" y="58" width="1296" height="644" rx="28" fill="#ffffff" stroke="#d7e5dc" stroke-width="1.2"/>
  <rect x="112" y="98" width="1216" height="56" rx="28" fill="#ffffff" stroke="#d7e5dc"/>
  <text x="144" y="133" fill="#1f2722" font-family="Georgia, 'Times New Roman', serif" font-size="24" font-weight="600">CREEP_LAB</text>
  <circle cx="298" cy="126" r="4" fill="#2f6f4e"/>
  <text x="314" y="132" fill="#66736b" font-family="Arial, sans-serif" font-size="12" letter-spacing="5">LOCAL COMPUTE</text>
  <rect x="1054" y="111" width="148" height="30" rx="15" fill="#e7f1ea" stroke="#d7e5dc"/>
  <text x="1082" y="131" fill="#1f5138" font-family="Arial, sans-serif" font-size="13" font-weight="700">Rust WASM</text>
  <rect x="1214" y="111" width="84" height="30" rx="15" fill="#f9fbf6" stroke="#d7e5dc"/>
  <text x="1238" y="131" fill="#66736b" font-family="Arial, sans-serif" font-size="13" font-weight="600">React</text>

  <text x="112" y="216" fill="#1f2722" font-family="Georgia, 'Times New Roman', serif" font-size="60">Concrete creep</text>
  <text x="112" y="282" fill="#2f6f4e" font-family="Georgia, 'Times New Roman', serif" font-size="60">calculation workspace</text>
  <text x="116" y="328" fill="#66736b" font-family="Arial, sans-serif" font-size="18">A quiet scientific interface for ACI 209R-92, fib MC 2010, B4 and B4S models.</text>

  <g filter="url(#shadow)">
    <rect x="112" y="390" width="556" height="244" rx="22" fill="#ffffff" stroke="#d7e5dc"/>
    <clipPath id="clipSingle"><rect x="128" y="406" width="524" height="212" rx="16"/></clipPath>
    <image href="ui-wide-single-analysis.png" x="128" y="406" width="524" height="212" preserveAspectRatio="xMidYMid slice" clip-path="url(#clipSingle)"/>
  </g>

  <g filter="url(#shadow)">
    <rect x="704" y="364" width="624" height="148" rx="22" fill="#ffffff" stroke="#d7e5dc"/>
    <clipPath id="clipBatch"><rect x="720" y="380" width="592" height="116" rx="16"/></clipPath>
    <image href="ui-wide-batch-matrix.png" x="720" y="380" width="592" height="116" preserveAspectRatio="xMidYMid slice" clip-path="url(#clipBatch)"/>
  </g>

  <g filter="url(#shadow)">
    <rect x="704" y="536" width="624" height="112" rx="22" fill="#ffffff" stroke="#d7e5dc"/>
    <clipPath id="clipDocs"><rect x="720" y="552" width="592" height="80" rx="16"/></clipPath>
    <image href="ui-wide-model-docs.png" x="720" y="552" width="592" height="80" preserveAspectRatio="xMidYMin slice" clip-path="url(#clipDocs)"/>
  </g>

  <rect x="112" y="674" width="1216" height="1" fill="#e5ebe4"/>
  <text x="112" y="700" fill="#9aa59e" font-family="Arial, sans-serif" font-size="12" letter-spacing="4">HALUNHAKU DESIGN LANGUAGE</text>

  <defs>
    <filter id="shadow" x="80" y="264" width="1280" height="402" filterUnits="userSpaceOnUse" color-interpolation-filters="sRGB">
      <feDropShadow dx="0" dy="18" stdDeviation="22" flood-color="#253a2b" flood-opacity="0.08"/>
    </filter>
  </defs>
</svg>
